# xmcd CD database file
#
# Track frame offsets:
#	150
#	14061
#	31828
#	49250
#	65109
#	77748
#	93800
#	109677
#	125467
#	138812
#	155299
#	169330
#	186743
#	199910
#
# Disc length: 2884 seconds
#
# Revision: 0
# Processed by: cddbd v1.5.2PL0 Copyright (c) Steve Scherf et al.
# Submitted via: CDex 1.51
#
DISCID=c30b420e
DTITLE=ANGEL RATTAY - Flying Blind
DYEAR=2006
DGENRE=Country
TTITLE0=She Is
TTITLE1=Flying Blind
TTITLE2=Your Love
TTITLE3=Something 'Bout A Memory
TTITLE4=Climbing Mt. Everest
TTITLE5=Take Me There
TTITLE6=94 Dodge, Interstate 80
TTITLE7=Brand New Day
TTITLE8=Go To Jail
TTITLE9=A Mile At A Time
TTITLE10=Sliver Platter
TTITLE11=Is That All You Got
TTITLE12=We Couldn't Make It Fly
TTITLE13=I Won't Think About You
EXTD=YEAR: 2006
EXTT0=
EXTT1=
EXTT2=
EXTT3=
EXTT4=
EXTT5=
EXTT6=
EXTT7=
EXTT8=
EXTT9=
EXTT10=
EXTT11=
EXTT12=
EXTT13=
PLAYORDER=
